<?xml version="1.0" encoding="utf-8"?>
<!-- Generator: Adobe Illustrator 16.0.3, SVG Export Plug-In . SVG Version: 6.00 Build 0)  -->
<!DOCTYPE svg PUBLIC "-//W3C//DTD SVG 1.1//EN" "http://www.w3.org/Graphics/SVG/1.1/DTD/svg11.dtd">
<svg version="1.1" id="Capa_1" xmlns="http://www.w3.org/2000/svg" xmlns:xlink="http://www.w3.org/1999/xlink" x="0px" y="0px"
	 width="3966.363px" height="3968.5px" viewBox="0 0 3966.363 3968.5" enable-background="new 0 0 3966.363 3968.5"
	 xml:space="preserve">
<g>
	<rect x="9.117" y="0.564" fill="#9CFFEC" width="3957.246" height="3967.371"/>
	<g>
		<polygon fill="#C0FFF3" points="1399.247,0.564 1995.751,1982.52 1681.065,0.564 		"/>
		<polygon fill="#C0FFF3" points="180.268,0.564 1995.751,1982.52 619.614,0.564 		"/>
		<polygon fill="#C0FFF3" points="1861.865,0.564 1995.751,1982.52 2129.637,0.564 		"/>
		<polygon fill="#C0FFF3" points="3372.044,0.564 1995.751,1982.52 3811.456,0.564 		"/>
		<polygon fill="#C0FFF3" points="2792.99,0.564 1995.751,1982.52 3123.275,0.564 		"/>
		<polygon fill="#C0FFF3" points="0,3362.666 0,3803.373 1995.751,1982.52 		"/>
		<polygon fill="#C0FFF3" points="2310.566,0.564 1995.751,1982.52 2592.406,0.564 		"/>
		<polygon fill="#C0FFF3" points="0,2580.725 1995.751,1982.52 0,2298.176 		"/>
		<polygon fill="#C0FFF3" points="0,602.316 1995.751,1982.52 0,161.654 		"/>
		<polygon fill="#C0FFF3" points="0,2116.764 1995.751,1982.52 0,1848.248 		"/>
		<polygon fill="#C0FFF3" points="0,3113.115 1995.751,1982.52 0,2781.92 		"/>
		<polygon fill="#C0FFF3" points="0,1666.805 1995.751,1982.52 0,1384.256 		"/>
		<polygon fill="#C0FFF3" points="0,1183.131 1995.751,1982.52 0,851.865 		"/>
		<polygon fill="#C0FFF3" points="868.238,0.564 1995.751,1982.52 1198.538,0.564 		"/>
		<polygon fill="#C0FFF3" points="3814.671,3967.936 1995.751,1982.52 3374.472,3967.936 		"/>
		<polygon fill="#C0FFF3" points="2129.864,3967.936 1995.751,1982.52 1861.63,3967.936 		"/>
		<polygon fill="#C0FFF3" points="3125.256,3967.936 1995.751,1982.52 2794.387,3967.936 		"/>
		<polygon fill="#C0FFF3" points="2593.426,3967.936 1995.751,1982.52 2311.114,3967.936 		"/>
		<polygon fill="#C0FFF3" points="1680.494,3967.936 1995.751,1982.52 1398.186,3967.936 		"/>
		<polygon fill="#C0FFF3" points="617.211,3967.936 1995.751,1982.52 177.023,3967.936 		"/>
		<polygon fill="#C0FFF3" points="3966.363,184.736 1995.751,1982.52 3966.363,619.813 		"/>
		<polygon fill="#C0FFF3" points="1197.122,3967.936 1995.751,1982.52 866.234,3967.936 		"/>
		<polygon fill="#C0FFF3" points="3966.363,1391.822 1995.751,1982.52 3966.363,1670.807 		"/>
		<polygon fill="#C0FFF3" points="3966.363,1849.932 1995.751,1982.52 3966.363,2115.074 		"/>
		<polygon fill="#C0FFF3" points="3966.363,3377.432 1995.751,1982.52 3966.363,3753.26 		"/>
		<polygon fill="#C0FFF3" points="3966.363,866.098 1995.751,1982.52 3966.363,1193.184 		"/>
		<polygon fill="#C0FFF3" points="3966.363,2294.197 1995.751,1982.52 3966.363,2573.205 		"/>
		<polygon fill="#C0FFF3" points="3966.363,2771.865 1995.751,1982.52 3966.363,3098.908 		"/>
	</g>
</g>
</svg>
