<?xml version="1.0" encoding="utf-8"?>
<!-- Generator: Adobe Illustrator 16.0.3, SVG Export Plug-In . SVG Version: 6.00 Build 0)  -->
<!DOCTYPE svg PUBLIC "-//W3C//DTD SVG 1.1//EN" "http://www.w3.org/Graphics/SVG/1.1/DTD/svg11.dtd">
<svg version="1.1" id="Capa_1" xmlns="http://www.w3.org/2000/svg" xmlns:xlink="http://www.w3.org/1999/xlink" x="0px" y="0px"
	 width="3968.5px" height="3968.5px" viewBox="0 0 3968.5 3968.5" enable-background="new 0 0 3968.5 3968.5" xml:space="preserve">
<g>
	<rect x="1.068" y="0.564" fill="#64F9A0" width="3966.363" height="3967.371"/>
	<g>
		<polygon fill="#44EA87" points="1405.627,0.564 2000.896,1982.52 1686.861,0.564 		"/>
		<polygon fill="#44EA87" points="189.17,0.564 2000.896,1982.52 627.607,0.564 		"/>
		<polygon fill="#44EA87" points="1867.287,0.564 2000.896,1982.52 2134.506,0.564 		"/>
		<polygon fill="#44EA87" points="3374.342,0.564 2000.896,1982.52 3812.846,0.564 		"/>
		<polygon fill="#44EA87" points="2796.486,0.564 2000.896,1982.52 3126.088,0.564 		"/>
		<polygon fill="#44EA87" points="9.275,3362.666 9.275,3803.373 2000.896,1982.52 		"/>
		<polygon fill="#44EA87" points="2315.061,0.564 2000.896,1982.52 2596.318,0.564 		"/>
		<polygon fill="#44EA87" points="9.275,2580.725 2000.896,1982.52 9.275,2298.176 		"/>
		<polygon fill="#44EA87" points="9.275,602.316 2000.896,1982.52 9.275,161.654 		"/>
		<polygon fill="#44EA87" points="9.275,2116.764 2000.896,1982.52 9.275,1848.248 		"/>
		<polygon fill="#44EA87" points="9.275,3113.115 2000.896,1982.52 9.275,2781.92 		"/>
		<polygon fill="#44EA87" points="9.275,1666.805 2000.896,1982.52 9.275,1384.256 		"/>
		<polygon fill="#44EA87" points="9.275,1183.131 2000.896,1982.52 9.275,851.865 		"/>
		<polygon fill="#44EA87" points="875.717,0.564 2000.896,1982.52 1205.334,0.564 		"/>
		<polygon fill="#44EA87" points="3816.053,3967.936 2000.896,1982.52 3376.764,3967.936 		"/>
		<polygon fill="#44EA87" points="2134.732,3967.936 2000.896,1982.52 1867.053,3967.936 		"/>
		<polygon fill="#44EA87" points="3128.064,3967.936 2000.896,1982.52 2797.881,3967.936 		"/>
		<polygon fill="#44EA87" points="2597.334,3967.936 2000.896,1982.52 2315.607,3967.936 		"/>
		<polygon fill="#44EA87" points="1686.291,3967.936 2000.896,1982.52 1404.568,3967.936 		"/>
		<polygon fill="#44EA87" points="625.209,3967.936 2000.896,1982.52 185.932,3967.936 		"/>
		<polygon fill="#44EA87" points="3967.432,184.736 2000.896,1982.52 3967.432,619.813 		"/>
		<polygon fill="#44EA87" points="1203.92,3967.936 2000.896,1982.52 873.717,3967.936 		"/>
		<polygon fill="#44EA87" points="3967.432,1391.822 2000.896,1982.52 3967.432,1670.807 		"/>
		<polygon fill="#44EA87" points="3967.432,1849.932 2000.896,1982.52 3967.432,2115.074 		"/>
		<polygon fill="#44EA87" points="3967.432,3377.432 2000.896,1982.52 3967.432,3753.26 		"/>
		<polygon fill="#44EA87" points="3967.432,866.098 2000.896,1982.52 3967.432,1193.184 		"/>
		<polygon fill="#44EA87" points="3967.432,2294.197 2000.896,1982.52 3967.432,2573.205 		"/>
		<polygon fill="#44EA87" points="3967.432,2771.865 2000.896,1982.52 3967.432,3098.908 		"/>
	</g>
</g>
</svg>
